<?xml version="1.0" encoding="utf-8"?>
<!-- Generator: Adobe Illustrator 25.4.1, SVG Export Plug-In . SVG Version: 6.00 Build 0)  -->
<svg version="1.1" id="Layer_1" xmlns="http://www.w3.org/2000/svg" xmlns:xlink="http://www.w3.org/1999/xlink" x="0px" y="0px"
	 viewBox="0 0 48 48" style="enable-background:new 0 0 48 48;" xml:space="preserve">
<style type="text/css">
	.st0{fill:#00A9CE;}
	.st1{fill:#FFFFFF;}
</style>
<g>
	<path class="st0" d="M42,8.3c0.8,0,1.5-0.7,1.5-1.5S42.8,5.3,42,5.3h-4V1.7c0-0.8-0.7-1.5-1.5-1.5H11.6c-0.8,0-1.5,0.7-1.5,1.5v3.6
		H6C5.2,5.3,4.5,6,4.5,6.8S5.2,8.3,6,8.3h4v8.2H6c-0.8,0-1.5,0.7-1.5,1.5s0.7,1.5,1.5,1.5h4v8.2H6c-0.8,0-1.5,0.7-1.5,1.5
		s0.7,1.5,1.5,1.5h4v8.2H6c-0.8,0-1.5,0.7-1.5,1.5s0.7,1.5,1.5,1.5h4v4.4c0,0.8,0.7,1.5,1.5,1.5h24.9c0.8,0,1.5-0.7,1.5-1.5v-4.4h4
		c0.8,0,1.5-0.7,1.5-1.5s-0.7-1.5-1.5-1.5h-4v-8.2h4c0.8,0,1.5-0.7,1.5-1.5s-0.7-1.5-1.5-1.5h-4v-8.2h4c0.8,0,1.5-0.7,1.5-1.5
		s-0.7-1.5-1.5-1.5h-4V8.3H42z M34.9,44.8h-9.4v-1.6c0-0.8-0.7-1.5-1.5-1.5s-1.5,0.7-1.5,1.5v1.6h-9.4V3.2h21.9V44.8z"/>
</g>
</svg>
