<svg xmlns="http://www.w3.org/2000/svg" viewBox="0 0 155 155" >
	<path d="M120.2,66.1c2.2,0,4-1.8,4-4s-1.8-4-4-4h-9.7V35.2h9.7c2.2,0,4-1.8,4-4s-1.8-4-4-4h-9.8
		c-0.3-9.2-7.9-16.6-17.2-16.6H62.3c-9.3,0-16.8,7.4-17.2,16.6h-9.8c-2.2,0-4,1.8-4,4s1.8,4,4,4h9.7v22.9h-9.7c-2.2,0-4,1.8-4,4
		s1.8,4,4,4h9.7v22.9h-9.7c-2.2,0-4,1.8-4,4s1.8,4,4,4h9.7v22.9h-9.7c-2.2,0-4,1.8-4,4s1.8,4,4,4h9.8c0.3,9.2,7.9,16.6,17.2,16.6
		h30.9c9.3,0,16.8-7.4,17.2-16.6h9.8c2.2,0,4-1.8,4-4s-1.8-4-4-4h-9.7V96.9h9.7c2.2,0,4-1.8,4-4s-1.8-4-4-4h-9.7V66.1H120.2z
		M102.4,127.2c0,5.1-4.1,9.2-9.2,9.2H81.8v-4.5c0-2.2-1.8-4-4-4s-4,1.8-4,4v4.5H62.3c-5.1,0-9.2-4.1-9.2-9.2V27.8
		c0-5.1,4.1-9.2,9.2-9.2h30.9c5.1,0,9.2,4.1,9.2,9.2V127.2z"/>
</svg>
